<svg width="44" height="44" viewBox="0 0 44 44" fill="none" xmlns="http://www.w3.org/2000/svg">
<path fill-rule="evenodd" clip-rule="evenodd" d="M22 43C33.598 43 43 33.598 43 22C43 10.402 33.598 1 22 1C10.402 1 1 10.402 1 22C1 33.598 10.402 43 22 43ZM22 44C34.1503 44 44 34.1503 44 22C44 9.84974 34.1503 0 22 0C9.84974 0 0 9.84974 0 22C0 34.1503 9.84974 44 22 44Z" fill="#4285F4"/>
<path fill-rule="evenodd" clip-rule="evenodd" d="M29.3333 22L18.3333 15.6491L18.3333 28.3509L29.3333 22ZM27.3333 22L19.3333 17.3812L19.3333 26.6188L27.3333 22Z" fill="#4285F4"/>
</svg>
